<svg width="19" height="15" viewBox="0 0 19 15" fill="none" xmlns="http://www.w3.org/2000/svg">
<path d="M12.1154 5.76923L13.0269 3.78461L15 2.88461L13.0269 1.98461L12.1154 0L11.2385 1.98461L9.23077 2.88461L11.2385 3.78461L12.1154 5.76923Z" fill="black"/>
<path d="M2.30769 8.07693L2.76923 6.23078L4.61538 5.76924L2.76923 5.3077L2.30769 3.46155L1.84615 5.3077L0 5.76924L1.84615 6.23078L2.30769 8.07693Z" fill="black"/>
<path d="M16.7308 3.46155C15.4961 3.46155 14.6077 4.75385 15.1731 5.93078L11.7 9.40385C11.1 9.11539 10.5577 9.24231 10.2115 9.40385L9.04615 8.23847C9.16153 8.01924 9.23076 7.76539 9.23076 7.50001C9.23076 6.54231 8.45769 5.76924 7.49999 5.76924C6.5423 5.76924 5.76923 6.54231 5.76923 7.50001C5.76923 7.76539 5.83846 8.01924 5.9423 8.23847L2.46923 11.7115C2.25 11.6077 1.99615 11.5385 1.73077 11.5385C0.773076 11.5385 0 12.3115 0 13.2692C0 14.2269 0.773076 15 1.73077 15C2.68846 15 3.46154 14.2269 3.46154 13.2692C3.46154 13.0038 3.39231 12.75 3.28846 12.5308L6.76153 9.0577C7.36153 9.34616 7.90384 9.21924 8.24999 9.0577L9.41538 10.2231C9.29999 10.4423 9.23076 10.6962 9.23076 10.9615C9.23076 11.9192 10.0038 12.6923 10.9615 12.6923C11.9192 12.6923 12.6923 11.9192 12.6923 10.9615C12.6923 10.6962 12.6231 10.4423 12.5192 10.2231L15.9923 6.75001C17.1808 7.32693 18.4615 6.41539 18.4615 5.19232C18.4615 4.23462 17.6884 3.46155 16.7308 3.46155Z" fill="black"/>
</svg>
